<svg xmlns="http://www.w3.org/2000/svg" fill="none" viewBox="0 0 24 24" id="menumeatballs"><path fill="#ffffff" d="M12 10C13.1046 10 14 10.8954 14 12 14 13.1046 13.1046 14 12 14 10.8954 14 10 13.1046 10 12 10 10.8954 10.8954 10 12 10zM4 10C5.10457 10 6 10.8954 6 12 6 13.1046 5.10457 14 4 14 2.89543 14 2 13.1046 2 12 2 10.8954 2.89543 10 4 10zM20 10C21.1046 10 22 10.8954 22 12 22 13.1046 21.1046 14 20 14 18.8954 14 18 13.1046 18 12 18 10.8954 18.8954 10 20 10z" class="color000000 svgShape"></path></svg>