<svg xmlns="http://www.w3.org/2000/svg" enable-background="new 0 0 32 32" viewBox="0 0 32 32" id="pause"><path d="M16,0.5C7.45001,0.5,0.5,7.45001,0.5,16S7.45001,31.5,16,31.5S31.5,24.54999,31.5,16S24.54999,0.5,16,0.5z M21.14001,21.54999c0,0.83002-0.67004,1.5-1.5,1.5c-0.83002,0-1.5-0.66998-1.5-1.5V10.45001c0-0.83002,0.66998-1.5,1.5-1.5c0.82996,0,1.5,0.66998,1.5,1.5V21.54999z M13.85999,21.54999c0,0.83002-0.66998,1.5-1.5,1.5c-0.82996,0-1.5-0.66998-1.5-1.5V10.45001c0-0.83002,0.67004-1.5,1.5-1.5c0.83002,0,1.5,0.66998,1.5,1.5V21.54999z" fill="#ffffff" class="color000000 svgShape"></path></svg>